<svg xmlns="http://www.w3.org/2000/svg" xmlns:xlink="http://www.w3.org/1999/xlink" width="1920" height="1020" viewBox="0 0 1920 1020" fill="none">
<g opacity="0.5">
<g  clip-path="url(#clip-path-0_111)">
<rect x="0" y="0" width="1920" height="1020"   fill="url(#linear_fill_0_159)" >
</rect>
<path d="M1472.74 902.34C1518.27 904.168 1551.84 944.909 1544.45 989.546C1537.07 1034.18 1489.06 1069.96 1445.59 1063.52C1393.86 1051.56 1362.92 1000.93 1305.84 1005.02C1248.07 1010.65 1210.72 1058.54 1179.08 1101.61C1124.02 1169.27 1002.63 1157.65 970.289 1086.11C937.618 1027.34 973.099 943.594 1042.62 915.546C1092.47 891.648 1153 903.836 1187.25 943.038C1219.21 979.377 1264.89 1008.92 1317.95 993.823C1380.51 977.422 1402.84 895.196 1472.74 902.34Z" fill-rule="evenodd"  fill="#DDBCEB" >
</path>
<path d="M637.818 363.09C715.373 357.049 768.902 449.067 718.067 511.234C660.264 585.048 628.92 683.535 655.101 768.913C678.305 852.967 768.056 907.65 859.33 894.812C928.761 886.998 988.314 845.299 1035.16 796.102C1071.26 755.027 1086.54 704.683 1115.2 660.298C1156.09 608.453 1242.58 606.384 1279.35 655.927C1317.38 698.654 1298.48 773.186 1244.4 802.577C1208.51 827.156 1163.42 816.31 1124.65 819.333C1058.07 824.729 994.385 851.686 940.782 896.033C908.551 920.399 893.608 957.987 869.619 987.863C843.219 1011.14 806.495 1009.54 778.342 1000.7C702.815 978.153 616.45 983.96 539.042 1017.71C502.11 1032.62 464.163 1061.81 426.965 1045.26C388.16 1024.31 374.832 974.139 335.342 954.722C267.227 911.511 178.782 897.96 93.6955 920.925C17.4184 944.126 -51.6467 870.998 -23.8145 800.438C-2.29025 716.012 133.476 695.322 168.913 771.918C205.509 861.931 291.271 929.583 395.041 940.736C491.375 948.581 596.195 877.257 618.852 782.275C639.007 700.926 620.029 611.38 568.935 549.937C549.119 526.374 526.325 501.486 530.405 468.281C527.256 415.269 579.934 364.981 637.818 363.09Z" fill-rule="evenodd"  fill="#DDBCEB" >
</path>
<path d="M657.893 209.819C696.104 212.076 711.486 257.628 683.718 283.98C660.413 312.317 610.179 301.024 604.766 269.124C595.692 237.438 627.687 205.594 657.893 209.819Z" fill-rule="evenodd"  fill="#DDBCEB" >
</path>
<path d="M-95.5843 665.286C-57.3728 667.543 -41.3066 711.557 -69.76 739.447C-93.0643 767.784 -143.298 756.491 -148.027 723.053C-159.958 693.782 -127.278 660.399 -95.5843 665.286Z" fill-rule="evenodd"  fill="#DDBCEB" >
</path>
<path d="M1405.76 548.127C1443.29 551.923 1459.35 595.936 1430.9 623.827C1408.28 650.626 1357.36 640.871 1352.63 607.432C1343.56 575.746 1373.38 544.779 1405.76 548.127Z" fill-rule="evenodd"  fill="#DDBCEB" >
</path>
<path d="M148.564 385.006C179.847 330.727 270.793 330.644 293.733 383.246C314.473 412.75 292.893 449.228 289.498 480.895C279.019 520.469 300.234 564.93 337.432 581.482C382.992 607.284 448.405 588.469 487 625.918C550.206 676.16 532.369 784.346 455.883 824.04C384.663 867.922 286.697 831.703 272.539 755.36C255.998 696.39 313.707 642.811 301.512 582.088C296.071 526.213 239.648 504.793 191.021 497.901C139.537 493.424 119.098 427.191 148.564 385.006Z" fill-rule="evenodd"  fill="#DDBCEB" >
</path>
<path d="M1040.51 271.322C1102.62 263.939 1145.94 334.826 1108.71 386.457C1092.96 421.844 1051.33 427.28 1021.03 443.29C979.752 459.944 953.262 503.453 955.252 543.046C954.742 596.272 1000.78 637.031 987.796 690.238C972.789 772.035 869.547 823.786 798.692 786.728C726.587 756.486 709.425 654.845 769.991 598.851C813.862 548.33 889.838 561.862 935.315 515.742C982.519 477.763 971.126 419.241 955.06 375.227C941.166 330.337 987.775 273.662 1040.51 271.322Z" fill-rule="evenodd"  fill="#FFFFFF" >
</path>
<path d="M1699.99 339.33C1681.36 339.644 1670.73 317.424 1682.99 303.943C1688.59 294.256 1700.96 294.282 1710.18 290.642C1722.65 287.3 1731.74 275.674 1732.02 264.235C1733.44 248.979 1721.16 235.559 1726.35 220.63C1733.05 197.61 1764.62 186.311 1784.49 199.369C1805 210.419 1807.3 240.218 1787.81 254.799C1773.97 267.367 1751.85 260.925 1737.25 272.527C1722.37 281.862 1724.1 298.945 1727.47 312.75C1731.17 325.962 1715.88 340.59 1699.99 339.33Z" fill-rule="evenodd"  fill="#BF529D" >
</path>
</g>
</g>
<defs>
<clipPath id="clip-path-0_111">
<path d="M0 1020L1920 1020L1920 0L0 0L0 1020Z" fill="white"/>
</clipPath>
<radialGradient id="linear_fill_0_159" cx="0" cy="0" r="1" gradientTransform="translate(577.3824 490.4262) rotate(-180) scale(1358.7648, 721.8438)" gradientUnits="userSpaceOnUse">
<stop offset="0" stop-color="#E3E5FF"  />
<stop offset="1" stop-color="#CECDFA"  />
</radialGradient>
</defs>
</svg>
